<svg id="visual" viewBox="0 0 900 600" width="900" height="600" xmlns="http://www.w3.org/2000/svg" xmlns:xlink="http://www.w3.org/1999/xlink" version="1.1"><rect x="0" y="0" width="900" height="600" fill="#00070A"></rect><defs><linearGradient id="grad1_0" x1="33.3%" y1="0%" x2="100%" y2="100%"><stop offset="20%" stop-color="#00070a" stop-opacity="1"></stop><stop offset="80%" stop-color="#00070a" stop-opacity="1"></stop></linearGradient></defs><defs><linearGradient id="grad2_0" x1="0%" y1="0%" x2="66.7%" y2="100%"><stop offset="20%" stop-color="#00070a" stop-opacity="1"></stop><stop offset="80%" stop-color="#00070a" stop-opacity="1"></stop></linearGradient></defs><g transform="translate(900, 0)"><path d="M0 405.6C-24.4 345.8 -48.7 286.1 -88.7 273C-128.6 259.8 -184.2 293.4 -201.6 277.5C-219 261.6 -198.4 196.1 -230.6 167.5C-262.8 138.9 -347.8 147.1 -385.8 125.3C-423.8 103.6 -414.7 51.8 -405.6 0L0 0Z" fill="#00AEEF"></path></g><g transform="translate(0, 600)"><path d="M0 -405.6C41.6 -386.8 83.3 -368 108.8 -334.8C134.3 -301.5 143.6 -253.8 168.1 -231.4C192.6 -209 232.3 -211.8 275.1 -199.8C317.8 -187.9 363.5 -161.1 385.8 -125.3C408 -89.6 406.8 -44.8 405.6 0L0 0Z" fill="#00AEEF"></path></g></svg>