<svg id="visual" viewBox="0 0 900 600" width="900" height="600" xmlns="http://www.w3.org/2000/svg" xmlns:xlink="http://www.w3.org/1999/xlink" version="1.1"><rect x="0" y="0" width="900" height="600" fill="#00070A"></rect><defs><linearGradient id="grad1_0" x1="33.3%" y1="0%" x2="100%" y2="100%"><stop offset="20%" stop-color="#00070a" stop-opacity="1"></stop><stop offset="80%" stop-color="#00070a" stop-opacity="1"></stop></linearGradient></defs><defs><linearGradient id="grad2_0" x1="0%" y1="0%" x2="66.7%" y2="100%"><stop offset="20%" stop-color="#00070a" stop-opacity="1"></stop><stop offset="80%" stop-color="#00070a" stop-opacity="1"></stop></linearGradient></defs><g transform="translate(900, 0)"><path d="M0 378.6C-29.1 378.5 -58.2 378.4 -84.2 369.1C-110.3 359.8 -133.3 341.2 -157.9 328C-182.6 314.7 -208.8 306.7 -233.2 292.4C-257.5 278.1 -280 257.6 -290.8 231.9C-301.7 206.3 -300.9 175.5 -312.6 150.6C-324.4 125.7 -348.6 106.7 -361.7 82.6C-374.8 58.4 -376.7 29.2 -378.6 0L0 0Z" fill="#00AEEF"></path></g><g transform="translate(0, 600)"><path d="M0 -378.6C26.5 -368.2 53 -357.8 80.3 -351.9C107.7 -346.1 135.9 -344.7 161 -334.3C186 -323.8 208 -304.1 225.7 -283C243.5 -261.9 257 -239.3 275.2 -219.5C293.4 -199.6 316.1 -182.5 333.4 -160.5C350.6 -138.6 362.5 -111.8 369.1 -84.2C375.7 -56.7 377.2 -28.3 378.6 0L0 0Z" fill="#00AEEF"></path></g></svg>